<svg width="26" height="26" viewBox="0 0 26 26" fill="none" xmlns="http://www.w3.org/2000/svg">
<path d="M24.9919 21.9777V21.9697L23.7759 23.1777C23.0026 23.9607 22.0405 24.5311 20.9825 24.8338C19.9245 25.1365 18.8063 25.1612 17.7359 24.9057C15.5426 24.3186 13.4576 23.3841 11.5599 22.1377C9.79676 21.0109 8.16294 19.6937 6.68786 18.2097C5.3307 16.8624 4.11133 15.383 3.04786 13.7937C1.88466 12.0835 0.963912 10.2205 0.311864 8.25766C-0.0546107 7.12709 -0.0990398 5.91681 0.183554 4.76241C0.466148 3.60801 1.0646 2.55511 1.91186 1.72166L3.33586 0.297659C3.43021 0.203291 3.54222 0.128433 3.66551 0.0773602C3.78879 0.0262873 3.92092 0 4.05436 0C4.18781 0 4.31994 0.0262873 4.44322 0.0773602C4.5665 0.128433 4.67852 0.203291 4.77286 0.297659L9.27287 4.79766C9.36723 4.89201 9.44209 5.00402 9.49316 5.1273C9.54424 5.25058 9.57052 5.38272 9.57052 5.51616C9.57052 5.6496 9.54424 5.78174 9.49316 5.90502C9.44209 6.0283 9.36723 6.14031 9.27287 6.23466L6.63287 8.87466C6.26635 9.23717 6.04214 9.71921 6.00104 10.2331C5.95993 10.7469 6.10464 11.2585 6.40886 11.6747C7.36373 12.9851 8.42033 14.2182 9.56886 15.3627C10.8493 16.6501 12.2414 17.8214 13.7289 18.8627C14.1453 19.1531 14.6505 19.2882 15.1564 19.2443C15.6622 19.2005 16.1366 18.9805 16.4969 18.6227L19.0449 16.0287C19.1392 15.9343 19.2512 15.8594 19.3745 15.8084C19.4978 15.7573 19.6299 15.731 19.7634 15.731C19.8968 15.731 20.0289 15.7573 20.1522 15.8084C20.2755 15.8594 20.3875 15.9343 20.4819 16.0287L24.9819 20.5407C25.0769 20.6343 25.1525 20.7458 25.2045 20.8688C25.2564 20.9917 25.2836 21.1236 25.2845 21.2571C25.2855 21.3905 25.2601 21.5228 25.2099 21.6465C25.1597 21.7701 25.0856 21.8827 24.9919 21.9777Z" fill="#F47741"/>
</svg>
