<svg width="33" height="33" viewBox="0 0 33 33" fill="none" xmlns="http://www.w3.org/2000/svg">
<path d="M21.4757 20.8364C22.5316 22.3364 24.2692 23.3239 26.2393 23.3239C29.4552 23.3239 32.0703 20.7088 32.0703 17.4929C32.0703 5.94127 24.0913 0 16.0352 0C7.19337 0 0 7.19337 0 16.0352C0 24.8769 7.19337 32.0703 16.0352 32.0703C19.5984 32.0703 22.9694 30.9272 25.7867 28.7647C27.3085 27.5962 25.5477 25.2791 24.0101 26.4529C21.7081 28.221 18.9506 29.1548 16.0352 29.1548C8.80058 29.1548 2.91548 23.2697 2.91548 16.0352C2.91548 8.80058 8.80058 2.91548 16.0352 2.91548C22.6988 2.91548 29.1548 7.73662 29.1548 17.4929C29.1548 19.1001 27.8466 20.4084 26.2393 20.4084C24.6321 20.4084 23.3239 19.1001 23.3239 17.4929V10.2042C23.3239 9.39845 22.6719 8.74645 21.8661 8.74645C21.0604 8.74645 20.4084 9.39845 20.4084 10.2042V10.2414C19.1864 9.31643 17.6822 8.74645 16.0352 8.74645C12.0164 8.74645 8.74645 12.0164 8.74645 16.0352C8.74645 20.054 12.0164 23.3239 16.0352 23.3239C18.2076 23.3239 20.1392 22.3492 21.4757 20.8364Z" fill="#F47741"/>
<path d="M16.0353 11.6619C13.6238 11.6619 11.6621 13.6236 11.6621 16.0351C11.6621 18.4466 13.6238 20.4083 16.0353 20.4083C18.4468 20.4083 20.4086 18.4466 20.4086 16.0351C20.4086 13.6236 18.4468 11.6619 16.0353 11.6619Z" fill="white"/>
</svg>
