<svg width="23" height="23" viewBox="0 0 23 23" fill="none" xmlns="http://www.w3.org/2000/svg">
<path d="M11.4738 7.55837C12.0776 7.55837 12.4576 7.14437 12.4398 6.62687C12.4398 6.0926 12.0776 5.6786 11.5088 5.6786C10.9573 5.6786 10.5605 6.09212 10.5605 6.62687C10.5605 7.14437 10.9396 7.55837 11.4738 7.55837Z" fill="black"/>
<path d="M12.268 16.7426V9.65282C12.268 9.02846 11.7634 8.97575 11.6206 8.97336H11.3494C11.3494 8.97336 10.75 8.97911 10.75 9.52536V16.858C10.761 17.0238 10.8339 17.3214 11.2296 17.3214H11.7955C11.9637 17.308 12.268 17.2203 12.268 16.7426Z" fill="black"/>
<path d="M11.5 0C5.14913 0 0 5.14817 0 11.5C0 17.8509 5.14865 23 11.5 23C17.8518 23 23 17.8509 23 11.5C23 5.14817 17.8518 0 11.5 0ZM11.5 21.0833C6.2076 21.0833 1.91667 16.7924 1.91667 11.5C1.91667 6.20665 6.2076 1.91667 11.5 1.91667C16.7934 1.91667 21.0833 6.20713 21.0833 11.5C21.0833 16.7924 16.7934 21.0833 11.5 21.0833Z" fill="black"/>
</svg>
